<?xml version="1.0" standalone="no"?>
<!DOCTYPE svg PUBLIC "-//W3C//DTD SVG 20010904//EN"
 "http://www.w3.org/TR/2001/REC-SVG-20010904/DTD/svg10.dtd">
<svg version="1.0" xmlns="http://www.w3.org/2000/svg"
 width="644.000000pt" height="414.000000pt" viewBox="0 0 644.000000 414.000000"
 preserveAspectRatio="xMidYMid meet">

<g transform="translate(0.000000,414.000000) scale(0.100000,-0.100000)"
fill="#000000" stroke="none">
<path d="M0 2070 l0 -2070 3220 0 3220 0 0 2070 0 2070 -3220 0 -3220 0 0
-2070z m2145 546 c29 -13 35 -20 35 -46 0 -38 -14 -66 -49 -96 -34 -31 -38
-30 -55 10 -8 19 -30 45 -50 58 l-36 25 28 26 c15 14 41 27 57 30 17 2 31 5
33 6 1 0 18 -6 37 -13z m-322 -43 c29 -2 38 -7 35 -19 -3 -13 -42 -16 -315
-19 -379 -4 -375 -3 -411 -105 -21 -62 -22 -76 -18 -280 4 -225 16 -322 44
-380 29 -61 55 -65 402 -65 168 0 321 3 340 5 60 9 71 43 82 248 5 97 6 204 3
237 -4 44 -2 65 9 80 8 11 17 18 19 15 3 -3 7 -122 9 -265 3 -248 2 -262 -18
-300 -16 -31 -29 -41 -60 -49 -21 -6 -194 -10 -384 -10 -376 -1 -382 0 -428
59 -37 47 -61 306 -52 560 4 131 8 156 29 198 25 52 54 76 103 86 31 6 531 9
611 4z m180 -58 c39 -27 72 -78 64 -100 -8 -18 -325 -292 -492 -423 -123 -96
-151 -114 -196 -122 -115 -22 -124 -10 -71 98 35 74 43 82 168 182 73 58 170
139 217 180 149 132 247 208 267 210 3 0 22 -11 43 -25z m1647 -60 l0 -75
-465 0 -465 0 0 -80 0 -80 310 0 310 0 0 -75 0 -75 -310 0 -310 0 0 -155 0
-155 -75 0 -75 0 0 385 0 385 540 0 540 0 0 -75z m780 -235 l0 -310 465 0 465
0 0 -75 0 -75 -545 0 -545 0 0 385 0 385 80 0 80 0 0 -310z m-390 -80 l0 -380
-75 0 -75 0 0 380 0 380 75 0 75 0 0 -380z"/>
<path d="M2049 2587 l-27 -12 45 -50 45 -49 24 27 c31 36 41 76 23 88 -19 12
-79 10 -110 -4z"/>
<path d="M1795 2384 c-88 -69 -207 -167 -265 -218 -58 -50 -124 -105 -147
-121 -34 -24 -46 -41 -58 -82 -8 -28 -15 -56 -15 -62 0 -18 82 -13 121 7 39
20 237 179 369 297 47 41 120 105 163 141 57 49 77 72 77 90 0 28 -44 74 -69
74 -9 0 -88 -57 -176 -126z"/>
</g>
</svg>
